<?xml version="1.0" standalone="no"?>
<!DOCTYPE svg PUBLIC "-//W3C//DTD SVG 20010904//EN"
 "http://www.w3.org/TR/2001/REC-SVG-20010904/DTD/svg10.dtd">
<svg version="1.0" xmlns="http://www.w3.org/2000/svg"
 width="1163.000000pt" height="1163.000000pt" viewBox="0 0 1163.000000 1163.000000"
 preserveAspectRatio="xMidYMid meet">
<metadata>
Created by potrace 1.11, written by Peter Selinger 2001-2013
</metadata>
<g transform="translate(0.000000,1163.000000) scale(0.100000,-0.100000)"
fill="#000000" stroke="none">
<path d="M2379 10578 c-6 -25 -23 -2328 -18 -2438 29 -599 222 -1415 476
-2010 63 -147 217 -452 302 -598 570 -978 1493 -1867 2582 -2485 l46 -26 107
60 c674 374 1423 1001 1944 1628 338 406 612 833 811 1267 262 569 459 1289
533 1944 14 128 16 1273 3 2168 l-7 492 -3389 0 c-1864 0 -3389 -1 -3390 -2z
m5269 -540 l3 -48 50 0 50 0 -3 -57 -3 -58 -45 0 c-50 0 -60 -7 -60 -49 0 -21
13 -43 44 -76 74 -79 81 -167 21 -238 l-24 -29 24 -23 c31 -29 48 -26 275 44
273 84 377 94 489 45 63 -26 123 -92 145 -156 20 -58 20 -160 2 -233 -8 -30
-58 -140 -110 -245 -95 -188 -126 -273 -126 -347 l0 -38 -789 0 -788 0 -6 58
c-7 83 -40 170 -116 312 -114 212 -126 247 -126 375 0 94 3 116 22 150 46 86
134 142 236 152 86 8 178 -10 385 -73 228 -70 246 -73 277 -44 l24 23 -24 29
c-61 72 -55 161 17 234 35 37 39 45 36 85 l-3 44 -45 0 -45 0 -3 58 -3 57 51
0 50 0 0 43 c0 24 3 47 7 51 4 4 30 6 58 4 l50 -3 3 -47z m-3758 -18 l0 -50
50 0 51 0 -3 -57 -3 -58 -47 -3 -48 -3 0 -44 c0 -37 5 -47 29 -64 43 -31 75
-102 68 -157 -2 -24 -13 -56 -23 -70 -11 -15 -23 -33 -29 -41 -7 -11 -3 -20
17 -38 l28 -24 72 20 c40 11 122 36 181 55 164 53 233 67 332 67 73 1 100 -3
140 -22 135 -60 195 -195 161 -361 -11 -57 -40 -124 -116 -275 -95 -190 -129
-285 -130 -362 l0 -23 -790 0 -790 0 0 48 c0 73 -29 152 -129 347 -102 201
-126 276 -119 375 12 157 101 250 264 275 68 10 193 -13 376 -70 251 -78 255
-79 285 -49 l24 24 -26 35 c-55 71 -46 165 21 231 37 38 44 51 44 84 l0 40
-49 0 c-54 0 -61 8 -61 63 0 46 10 55 60 59 l45 3 3 48 3 47 55 0 54 0 0 -50z
m4547 -4193 c-107 -208 -193 -355 -322 -547 -96 -142 -246 -349 -255 -350 -3
0 -269 268 -590 596 -322 328 -787 796 -1035 1041 l-450 444 -115 -118 c-64
-65 -532 -540 -1040 -1057 l-925 -938 -38 43 c-59 69 -237 321 -330 469 -107
170 -215 363 -285 509 l-55 113 1379 1380 1379 1379 1388 -1391 1388 -1391
-94 -182z m-37 2533 l0 -70 -810 0 -810 0 0 70 0 70 810 0 810 0 0 -70z
m-3760 -20 l0 -70 -805 0 -805 0 0 70 0 70 805 0 805 0 0 -70z m1238 -2342 l3
-47 47 -3 47 -3 0 -55 0 -55 -45 0 c-51 0 -60 -7 -60 -52 0 -25 9 -40 36 -65
76 -69 89 -158 36 -233 l-30 -43 23 -22 c31 -29 48 -26 275 44 274 84 387 94
497 40 100 -48 153 -142 153 -268 0 -95 -22 -157 -124 -361 -95 -188 -126
-273 -126 -347 l0 -38 -790 0 -790 0 0 33 c-1 85 -37 183 -131 357 -37 69 -80
161 -94 205 -24 69 -27 92 -23 170 6 133 54 208 161 255 106 47 214 37 482
-45 231 -71 249 -74 280 -45 l24 23 -24 29 c-61 72 -54 164 17 236 35 36 39
44 36 84 l-3 43 -45 0 -45 0 -3 58 -3 57 51 0 50 0 0 43 c0 24 3 47 7 51 4 4
30 6 58 4 l50 -3 3 -47z m752 -1678 l0 -70 -810 0 -810 0 0 70 0 70 810 0 810
0 0 -70z"/>
<path d="M6808 9436 c-60 -22 -88 -45 -109 -89 -36 -80 -20 -165 58 -321 130
-258 226 -371 309 -364 32 2 40 8 48 30 6 17 6 42 0 65 l-9 38 -63 6 c-35 3
-67 10 -72 15 -5 5 -12 28 -16 52 l-7 42 67 0 c36 0 66 2 66 4 0 2 -7 23 -15
47 -19 53 -10 64 49 55 43 -7 46 -9 56 -49 6 -23 13 -48 15 -54 3 -8 24 -13
59 -13 52 0 55 -1 65 -31 21 -62 17 -69 -44 -69 -43 0 -55 -3 -55 -15 0 -28
29 -73 63 -99 69 -53 144 -23 185 72 46 107 38 224 -28 397 -22 58 -40 115
-40 128 0 19 -19 29 -163 80 -89 32 -187 64 -217 72 -68 18 -153 18 -202 1z"/>
<path d="M8140 9427 c-41 -13 -136 -45 -212 -73 l-136 -49 -6 -39 c-4 -22 -20
-71 -37 -108 -38 -86 -63 -215 -56 -289 10 -112 74 -209 138 -209 59 0 119 50
134 113 7 27 7 27 -49 27 -53 0 -56 1 -56 24 0 14 4 36 10 50 9 24 15 26 64
26 l55 0 11 43 c6 23 13 47 15 54 4 13 80 28 96 18 11 -7 8 -52 -6 -87 -6 -16
0 -18 60 -18 l68 0 -7 -42 c-4 -24 -11 -47 -16 -52 -5 -5 -35 -11 -67 -14 -68
-5 -83 -19 -83 -78 0 -54 17 -68 73 -61 36 5 51 15 102 70 64 69 164 234 221
365 68 157 52 268 -45 321 -65 36 -171 39 -271 8z"/>
<path d="M3049 9414 c-56 -17 -104 -67 -119 -124 -17 -63 2 -140 70 -277 76
-158 148 -269 210 -327 41 -38 56 -46 88 -46 48 0 62 14 62 63 0 63 -13 77
-73 77 -66 0 -78 8 -87 60 -9 50 -2 55 71 48 48 -5 51 -4 46 16 -3 11 -8 36
-12 54 l-8 33 54 -3 54 -3 14 -52 14 -53 53 0 c58 0 66 -7 77 -67 l7 -33 -55
0 c-29 0 -56 -4 -59 -8 -9 -16 32 -89 63 -111 68 -49 134 -24 178 67 25 52 28
67 27 162 0 108 -11 158 -54 254 -12 26 -25 68 -29 93 l-6 45 -150 55 c-255
93 -338 108 -436 77z"/>
<path d="M4405 9411 c-38 -10 -133 -42 -210 -70 -77 -29 -146 -54 -152 -56 -7
-2 -13 -16 -13 -30 0 -14 -16 -65 -35 -114 -45 -115 -56 -169 -56 -261 0 -220
139 -318 249 -176 12 16 22 39 22 52 0 22 -4 24 -55 24 -61 0 -65 6 -41 65 14
32 18 34 68 37 l53 3 14 53 14 52 55 0 c52 0 54 -1 48 -22 -4 -13 -9 -37 -12
-54 l-6 -30 62 4 63 5 -5 -48 c-3 -26 -12 -51 -19 -56 -8 -5 -37 -9 -65 -9
-58 0 -72 -11 -81 -63 -8 -51 10 -77 53 -77 68 0 118 43 202 172 62 96 144
256 167 326 23 71 17 171 -11 209 -55 74 -178 100 -309 64z"/>
<path d="M5050 5401 c-116 -35 -161 -123 -130 -252 17 -72 113 -262 190 -378
75 -112 126 -153 184 -149 34 3 42 8 50 30 6 17 6 42 0 65 l-9 38 -62 5 c-34
3 -67 10 -73 16 -7 6 -14 30 -17 53 l-6 41 67 0 c36 0 66 2 66 4 0 2 -7 23
-15 47 -19 53 -10 64 49 55 43 -7 46 -9 56 -49 6 -23 13 -48 15 -54 3 -8 24
-13 59 -13 52 0 55 -1 65 -31 21 -62 17 -69 -44 -69 -61 0 -67 -8 -40 -59 24
-48 72 -81 115 -81 50 0 91 34 118 98 46 106 38 224 -27 395 -21 56 -41 113
-42 127 -4 21 -20 30 -149 78 -230 85 -340 107 -420 83z"/>
<path d="M6365 5386 c-44 -14 -135 -45 -202 -70 -67 -25 -126 -46 -131 -46 -5
0 -12 -19 -16 -42 -4 -23 -20 -73 -37 -110 -84 -192 -72 -399 27 -477 56 -44
141 -14 178 62 24 53 22 57 -39 57 -52 0 -55 2 -55 24 0 14 4 36 10 50 9 24
15 26 64 26 l55 0 11 43 c6 23 13 47 15 54 4 13 80 28 96 18 10 -7 6 -54 -8
-91 -4 -11 8 -14 62 -14 l67 0 -7 -42 c-4 -24 -11 -47 -16 -52 -4 -5 -34 -11
-66 -14 -37 -2 -63 -10 -70 -20 -18 -22 -16 -97 2 -112 22 -18 89 -6 123 22
68 55 198 261 262 416 86 204 22 330 -169 339 -59 2 -94 -2 -156 -21z"/>
<path d="M1835 6383 c-143 -19 -429 -172 -760 -405 -152 -108 -306 -166 -545
-209 -63 -12 -129 -27 -146 -34 -47 -19 -100 -71 -138 -133 -105 -174 -83
-362 60 -507 53 -54 152 -125 173 -125 6 0 57 39 113 86 109 91 305 227 390
270 l50 25 41 -27 c44 -28 207 -187 207 -201 0 -5 -94 -53 -209 -107 -195 -91
-209 -100 -201 -120 214 -554 386 -901 644 -1296 307 -469 723 -918 1150
-1239 587 -442 1135 -680 2094 -911 180 -43 340 -81 355 -85 33 -9 33 -12 -4
-110 -31 -84 -22 -126 41 -186 228 -221 734 -276 1079 -117 74 35 179 107 203
140 32 45 36 123 9 183 -28 64 -27 83 7 91 15 3 97 23 182 44 85 21 216 52
290 70 163 38 535 145 680 195 259 90 580 235 805 365 848 488 1520 1226 1994
2189 137 278 300 676 284 691 -4 4 -97 49 -205 100 -109 51 -198 98 -198 104
0 15 155 168 203 200 l39 25 56 -28 c115 -58 245 -151 465 -330 l30 -25 46 25
c67 35 183 153 214 219 64 132 55 263 -28 396 -69 111 -108 133 -285 164 -145
25 -340 87 -422 133 -31 18 -141 89 -245 158 -509 341 -670 385 -928 256 -137
-68 -284 -185 -439 -349 -220 -232 -318 -416 -320 -598 -1 -91 22 -157 68
-198 25 -22 61 -35 163 -60 208 -51 348 -113 491 -219 l72 -54 -25 -49 c-73
-145 -280 -466 -423 -655 -149 -198 -247 -311 -436 -501 -360 -359 -724 -609
-1156 -792 -201 -85 -360 -132 -820 -242 -181 -43 -391 -100 -470 -126 -95
-32 -135 -74 -133 -138 1 -45 23 -83 83 -149 27 -30 50 -61 50 -69 0 -20 -47
-62 -96 -86 -141 -71 -376 -67 -525 8 -46 24 -89 63 -89 80 0 6 24 37 54 68
69 74 90 114 83 164 -10 72 -50 98 -233 152 -66 20 -222 60 -349 91 -497 120
-600 151 -809 234 -615 247 -1181 707 -1650 1341 -134 182 -416 629 -416 661
0 4 34 32 75 62 138 101 332 187 500 222 42 8 94 24 116 35 108 56 131 242 52
435 -55 134 -219 343 -388 497 -187 170 -332 259 -479 293 -60 15 -83 16 -141
8z m133 -54 c77 -18 221 -93 317 -166 115 -86 301 -272 387 -388 120 -159 168
-278 168 -415 0 -127 -44 -178 -163 -187 -118 -10 -336 64 -565 191 -213 118
-262 140 -322 144 -77 5 -131 -31 -202 -134 -74 -109 -121 -159 -191 -201
l-59 -36 -77 80 c-42 44 -98 98 -125 121 l-49 40 39 17 c21 9 82 31 134 50
299 105 510 238 574 363 38 73 28 167 -23 224 l-29 32 -68 -63 c-95 -88 -232
-177 -247 -162 -7 7 -12 46 -12 99 0 111 29 179 109 256 118 113 275 166 404
135z m7782 0 c127 -29 270 -130 325 -231 28 -49 30 -61 30 -155 0 -56 -3 -104
-7 -108 -15 -15 -130 62 -250 167 -36 32 -69 58 -72 58 -4 0 -20 -21 -36 -47
-36 -57 -41 -134 -11 -198 61 -132 273 -266 593 -375 77 -27 143 -51 146 -55
4 -4 -7 -16 -23 -27 -17 -12 -74 -65 -128 -119 -54 -55 -102 -99 -106 -99 -5
0 -36 20 -69 44 -44 33 -79 72 -132 150 -79 117 -125 161 -183 177 -68 18 -94
8 -427 -168 -216 -114 -387 -173 -507 -173 -133 0 -195 81 -179 235 17 167
112 327 324 547 156 161 275 255 410 323 120 60 208 76 302 54z m-8305 -213
c-96 -185 -25 -417 138 -443 l39 -6 -49 -30 c-70 -44 -191 -97 -328 -146 -238
-84 -437 -199 -664 -382 l-110 -88 -59 43 c-67 49 -108 96 -148 170 -26 46
-29 60 -29 146 0 85 3 101 29 155 38 77 97 140 149 159 23 9 87 23 142 32 223
36 389 101 554 218 98 68 358 236 367 236 1 0 -13 -29 -31 -64z m8825 -54 c63
-41 152 -101 197 -133 133 -97 305 -162 535 -204 69 -13 143 -31 163 -40 45
-22 87 -72 128 -155 28 -56 32 -74 32 -145 0 -66 -5 -90 -27 -138 -30 -64
-109 -152 -176 -197 l-44 -29 -67 57 c-187 161 -476 341 -632 393 -173 58
-358 140 -414 183 -20 15 -20 15 3 16 71 1 154 74 178 158 25 86 16 204 -22
280 l-30 60 31 -15 c16 -9 82 -50 145 -91z m-8466 -152 c-2 -129 -166 -235
-263 -168 -19 12 -36 28 -38 34 -2 6 25 28 59 48 35 20 97 65 138 100 66 56
77 62 90 50 10 -10 15 -32 14 -64z m8053 18 c39 -35 176 -129 206 -142 18 -7
-42 -55 -80 -62 -18 -3 -48 -3 -67 0 -38 7 -119 74 -141 117 -18 33 -20 102
-4 130 12 23 13 22 86 -43z m26 -506 c16 -15 58 -71 94 -125 44 -66 83 -111
117 -136 65 -49 71 -52 321 -166 115 -53 211 -98 213 -100 6 -5 -59 -172 -136
-350 -454 -1059 -1150 -1886 -2033 -2418 -232 -140 -521 -277 -799 -380 -138
-51 -540 -170 -720 -213 -85 -20 -242 -58 -348 -84 -106 -25 -195 -44 -196
-41 -2 3 -54 174 -115 380 l-111 374 -59 63 c-84 89 -90 143 -20 179 58 30
249 83 644 179 328 79 467 120 650 193 454 180 850 447 1230 827 303 304 558
639 805 1061 124 212 380 732 380 771 0 32 1 33 28 23 15 -6 40 -22 55 -37z
m-7960 -357 c343 -682 649 -1108 1120 -1562 247 -237 551 -451 867 -609 293
-146 433 -193 960 -323 579 -142 640 -165 640 -236 0 -24 -14 -48 -62 -102
l-62 -71 -111 -369 c-61 -202 -113 -373 -116 -379 -2 -7 -55 2 -154 26 -82 20
-240 59 -350 85 -239 57 -570 155 -775 229 -846 308 -1581 860 -2137 1603
-260 349 -468 709 -668 1158 -43 96 -145 357 -145 370 0 6 80 49 178 95 326
152 341 160 400 219 32 31 82 92 112 136 30 44 70 90 89 102 l35 23 17 -52 c9
-29 82 -183 162 -343z m3536 -3052 c19 -13 70 -35 115 -50 69 -22 99 -26 206
-27 145 -1 233 20 319 78 28 19 53 31 55 28 2 -4 49 -162 105 -352 56 -190
114 -374 128 -410 47 -112 35 -151 -69 -221 -72 -49 -183 -98 -283 -125 -109
-30 -408 -27 -525 4 -117 31 -261 103 -321 161 -56 54 -62 86 -30 156 9 22 69
210 131 417 74 247 117 375 124 371 6 -4 26 -17 45 -30z"/>
<path d="M9927 4832 c-16 -30 -25 -57 -22 -60 4 -4 11 1 16 11 14 24 22 22
122 -20 69 -28 85 -38 72 -46 -26 -14 -247 -87 -266 -87 -10 0 -23 -17 -34
-46 -18 -48 -16 -65 5 -39 20 24 48 17 160 -38 83 -41 106 -57 110 -77 6 -25
5 -26 49 85 2 5 -5 2 -17 -8 -20 -18 -22 -18 -96 12 -97 39 -131 57 -120 63 5
3 80 29 167 57 86 29 157 57 157 62 0 5 -16 15 -35 24 -20 8 -80 35 -135 61
-85 40 -99 50 -102 73 -3 23 -6 21 -31 -27z"/>
<path d="M9715 4398 c-61 -113 -65 -124 -36 -106 19 11 31 8 104 -31 148 -80
158 -88 151 -119 -6 -26 -5 -26 8 -7 8 11 38 64 66 117 53 98 56 120 21 138
-26 15 -31 12 -19 -9 5 -11 10 -29 10 -41 0 -31 -38 -100 -56 -100 -8 0 -37
11 -65 25 -46 24 -49 27 -38 48 20 39 39 55 60 50 36 -10 19 13 -26 35 -43 21
-58 19 -34 -5 11 -11 -17 -83 -33 -83 -5 0 -31 11 -58 25 l-50 25 16 33 c25
49 45 67 73 67 30 0 18 16 -19 24 -23 6 -29 -1 -75 -86z"/>
<path d="M9608 4208 c-26 -41 -26 -43 -9 -67 10 -15 40 -66 66 -115 l48 -88
-84 7 c-46 4 -105 13 -130 19 -46 12 -47 12 -63 -15 -9 -15 -36 -52 -61 -83
-25 -30 -45 -57 -45 -59 0 -3 9 -3 19 0 17 4 28 -12 71 -97 l51 -103 -28 7
c-15 4 -66 19 -111 33 -72 21 -83 28 -79 44 8 31 -7 22 -46 -30 -41 -53 -46
-67 -19 -50 15 10 139 -20 325 -78 9 -3 17 -1 17 5 0 5 -31 75 -70 153 -38 79
-70 149 -70 156 0 6 11 24 24 39 l23 28 29 -19 c16 -10 66 -47 112 -83 73 -56
83 -67 78 -88 -10 -37 6 -28 34 19 31 53 36 65 19 50 -7 -7 -19 -13 -27 -13
-14 0 -186 120 -180 125 2 2 64 -7 138 -20 74 -12 137 -21 139 -19 1 1 -27 56
-64 121 -37 65 -70 123 -74 128 -5 10 5 4 122 -74 59 -38 67 -48 62 -68 -8
-35 1 -28 40 29 39 59 44 74 16 56 -16 -10 -31 -3 -102 42 -136 86 -147 95
-142 125 7 34 2 32 -29 -17z"/>
<path d="M9066 3508 c-43 -49 -55 -76 -22 -48 19 15 38 1 148 -107 67 -65 76
-78 67 -95 -22 -40 -2 -24 84 68 l88 94 -18 30 c-23 40 -33 38 -26 -6 5 -30 1
-40 -28 -70 -18 -19 -40 -34 -48 -34 -9 0 -58 39 -109 87 -79 73 -92 90 -88
110 4 12 4 23 2 23 -2 0 -25 -23 -50 -52z"/>
<path d="M8853 3300 c-76 -46 -98 -129 -45 -170 25 -20 34 -21 110 -15 72 6
86 4 103 -11 24 -22 24 -45 1 -75 -20 -24 -67 -31 -109 -16 -33 12 -29 -8 7
-33 l30 -22 45 27 c76 44 100 128 50 175 -28 26 -60 29 -152 15 -38 -5 -57 -4
-68 5 -22 18 -18 56 8 80 17 17 30 20 60 16 42 -7 47 1 13 26 -22 16 -25 16
-53 -2z"/>
<path d="M8688 3152 c-41 -29 -49 -47 -19 -37 21 7 20 9 57 -138 9 -37 14 -70
11 -73 -4 -5 -178 86 -196 102 -2 2 2 10 9 19 22 26 -1 16 -51 -22 -54 -41
-61 -52 -26 -46 21 4 163 -65 286 -140 l34 -20 -6 29 c-3 16 -20 93 -38 172
-28 118 -31 146 -21 162 17 27 4 25 -40 -8z"/>
<path d="M8390 2923 c-19 -14 -34 -29 -33 -33 8 -27 25 -241 20 -246 -6 -6
-132 64 -185 103 l-33 25 -42 -29 c-42 -28 -42 -28 -15 -31 32 -4 48 -24 113
-145 39 -72 45 -90 35 -102 -24 -29 -1 -27 44 5 25 17 46 33 46 35 0 2 -12 3
-27 2 -23 -2 -33 9 -83 88 -32 50 -57 91 -55 93 3 3 184 -106 214 -130 13 -10
26 -16 28 -14 3 2 -3 62 -11 133 -9 71 -16 135 -16 143 0 8 28 -27 62 -78 53
-81 60 -96 50 -113 -18 -28 1 -24 58 14 54 35 62 47 27 40 -20 -4 -33 11 -95
100 -72 105 -83 132 -60 155 21 21 -5 11 -42 -15z"/>
<path d="M7960 2657 c-54 -31 -55 -31 -26 -37 26 -4 38 -20 94 -123 53 -97 62
-120 52 -132 -19 -23 -3 -18 56 16 56 32 69 45 34 36 -23 -6 -38 13 -114 154
-43 80 -45 86 -29 102 27 27 -3 20 -67 -16z"/>
<path d="M7699 2518 c-73 -38 -80 -43 -56 -46 25 -3 34 -16 83 -114 56 -116
62 -136 42 -156 -22 -22 2 -13 94 34 49 26 97 58 105 71 40 61 2 133 -70 133
-38 0 -39 1 -24 18 21 23 22 51 1 80 -24 35 -78 29 -175 -20z m109 -5 c34 -30
37 -59 8 -88 -14 -14 -30 -25 -35 -25 -9 0 -61 90 -61 105 0 6 39 23 56 24 7
1 21 -7 32 -16z m105 -145 c25 -33 17 -71 -19 -95 -34 -22 -51 -11 -86 53 -26
46 -26 50 -10 62 29 22 92 11 115 -20z"/>
<path d="M7448 2407 c-108 -47 -123 -57 -86 -57 23 0 31 -11 77 -119 28 -66
51 -124 51 -129 0 -5 -7 -15 -15 -22 -31 -25 -7 -19 106 28 114 49 114 49 117
85 4 44 -13 50 -21 8 -5 -22 -17 -34 -50 -50 -60 -29 -74 -27 -96 17 -37 74
-36 80 8 93 32 10 43 9 56 -1 24 -20 24 -9 2 40 -18 39 -21 42 -25 22 -3 -20
-51 -52 -77 -52 -9 0 -45 82 -45 102 0 10 16 21 44 31 39 14 47 14 66 0 12 -8
23 -13 26 -10 8 8 -18 57 -30 56 -6 0 -55 -19 -108 -42z"/>
<path d="M7061 2260 c-90 -32 -120 -50 -83 -50 26 0 29 -5 78 -147 38 -111 38
-113 19 -127 -29 -23 -10 -19 91 14 144 48 204 115 191 211 -3 21 -15 52 -27
70 -48 66 -137 76 -269 29z m184 -33 c59 -59 70 -161 22 -204 -52 -48 -98 -55
-122 -20 -8 13 -31 70 -49 125 l-35 102 22 15 c13 9 43 15 75 15 48 0 58 -4
87 -33z"/>
<path d="M6825 2189 c-33 -11 -82 -24 -110 -31 -44 -9 -47 -12 -27 -19 16 -6
22 -15 18 -26 -2 -10 -13 -60 -22 -110 -10 -51 -21 -93 -24 -93 -6 0 -95 121
-123 167 -5 9 -3 21 5 30 11 14 10 16 -12 10 -14 -3 -44 -9 -67 -13 -46 -7
-57 -21 -21 -26 16 -2 51 -42 116 -133 52 -71 98 -131 102 -133 5 -2 11 7 14
20 54 268 69 314 106 326 21 8 31 7 38 -1 11 -13 72 -224 72 -247 0 -7 -8 -22
-17 -33 -17 -20 -17 -20 1 -14 10 4 39 12 65 19 53 12 76 28 43 28 -26 0 -29
6 -70 158 l-30 112 21 15 c20 14 21 15 2 14 -11 0 -47 -9 -80 -20z"/>
<path d="M1793 4548 c2 -20 -15 -32 -120 -85 -108 -56 -123 -61 -137 -48 -27
28 -26 15 6 -50 30 -60 57 -89 43 -46 -7 23 -2 27 133 97 105 54 115 57 127
41 27 -37 23 -14 -7 48 -33 67 -50 82 -45 43z"/>
<path d="M1872 4388 c3 -28 -3 -36 -47 -65 -103 -69 -176 -106 -188 -94 -26
26 -26 7 0 -39 30 -54 43 -63 36 -27 -3 14 2 29 12 37 24 20 169 109 172 106
2 -1 -19 -80 -46 -174 -26 -95 -45 -174 -42 -176 3 -2 62 29 130 70 127 75
148 83 169 62 21 -21 13 -1 -19 51 -36 57 -44 63 -35 26 5 -21 0 -30 -37 -56
-24 -16 -63 -42 -86 -56 l-44 -26 7 39 c4 21 23 90 41 154 l33 115 -24 43
c-14 23 -27 42 -29 42 -3 0 -4 -14 -3 -32z"/>
<path d="M2175 3914 c0 -22 -14 -38 -70 -81 -140 -107 -142 -108 -165 -88 -11
10 -20 15 -20 10 0 -6 126 -182 149 -207 3 -4 22 1 41 10 l35 16 -40 5 c-31 5
-45 14 -68 46 -15 23 -25 47 -22 55 3 8 51 48 106 89 90 66 103 73 121 62 11
-7 21 -11 23 -9 4 4 -78 117 -85 118 -3 0 -6 -12 -5 -26z"/>
<path d="M2305 3749 c5 -19 -12 -62 -69 -175 -41 -82 -73 -151 -71 -152 2 -2
78 15 170 38 l166 42 25 -23 c13 -12 24 -30 24 -39 0 -10 -30 -44 -67 -76
-127 -111 -133 -115 -154 -104 -31 17 -22 -3 21 -45 l40 -39 -6 30 c-5 27 1
36 77 104 46 41 79 66 75 55 -4 -11 -24 -65 -43 -120 -19 -55 -40 -108 -45
-119 -12 -23 -12 -23 151 29 63 19 115 34 117 32 2 -2 -32 -39 -76 -81 -68
-66 -82 -76 -95 -66 -9 7 -18 11 -20 8 -3 -2 18 -26 46 -54 38 -37 49 -43 44
-27 -5 19 9 39 88 120 91 93 96 97 121 85 35 -16 33 -2 -7 36 l-32 31 -124
-39 c-69 -22 -127 -38 -129 -35 -6 6 68 224 79 231 5 3 -14 31 -42 62 -29 31
-62 70 -73 85 -21 28 -21 28 -26 6 -5 -19 -21 -28 -95 -50 -136 -42 -133 -45
-75 72 43 85 54 99 70 94 30 -10 24 5 -26 60 -37 42 -44 46 -39 24z"/>
<path d="M2890 3121 c11 -21 -16 -58 -132 -186 -40 -44 -47 -48 -62 -36 -9 8
-19 11 -22 9 -6 -6 96 -98 108 -98 5 0 3 8 -3 19 -15 23 -9 32 95 146 67 73
80 84 97 75 34 -19 20 4 -30 48 -55 46 -67 52 -51 23z"/>
<path d="M3015 3014 c19 -47 15 -60 -61 -157 -67 -86 -79 -98 -100 -93 -36 9
-28 -5 19 -39 47 -34 68 -44 50 -24 -7 7 -13 22 -13 32 0 19 108 176 121 177
7 0 13 -42 30 -217 8 -79 17 -133 23 -133 6 0 24 19 40 42 17 23 56 75 89 116
49 62 63 73 83 69 34 -6 30 4 -18 41 -40 31 -75 45 -50 20 7 -7 12 -19 12 -28
0 -18 -98 -160 -110 -160 -8 0 -30 172 -33 256 -2 47 -5 53 -46 84 -33 25 -42
28 -36 14z"/>
<path d="M3360 2755 c16 -20 8 -38 -72 -162 -59 -92 -61 -94 -92 -87 -39 8
-42 10 92 -75 l113 -71 30 21 c34 24 30 44 -6 27 -31 -14 -62 -5 -105 30 l-35
29 19 35 c40 73 42 75 81 54 28 -15 35 -25 35 -50 0 -33 6 -29 39 26 l23 38
-30 -6 c-30 -6 -82 18 -82 38 0 5 14 29 30 54 30 43 32 44 58 30 39 -20 60
-47 64 -81 l3 -30 18 34 c11 18 15 37 10 40 -17 16 -191 121 -198 121 -4 0 -2
-7 5 -15z"/>
<path d="M3737 2518 c-30 -37 -28 -45 4 -28 26 14 97 -2 105 -24 5 -13 -14
-60 -81 -199 -27 -56 -29 -58 -59 -51 -44 9 -23 -7 57 -44 37 -17 67 -27 67
-21 0 5 -7 12 -15 15 -8 4 -15 12 -15 19 0 12 105 243 115 253 2 2 22 -6 44
-19 33 -18 41 -28 41 -51 0 -36 13 -36 29 -1 l13 28 17 -22 c14 -16 20 -57 30
-179 7 -87 14 -160 17 -163 2 -3 60 51 129 118 83 83 129 122 139 118 9 -4 18
-2 20 2 3 4 -13 14 -35 20 -23 7 -48 15 -56 18 -13 5 -13 3 -2 -15 13 -20 8
-27 -66 -102 l-80 -81 -6 63 c-12 119 -10 168 6 168 29 0 15 18 -22 30 -86 28
-345 147 -359 166 -10 13 -16 10 -37 -18z"/>
<path d="M4456 2240 c-93 -29 -145 -157 -97 -236 73 -120 243 -131 325 -20 31
41 29 139 -2 184 -43 60 -154 95 -226 72z m120 -25 c41 -17 64 -63 64 -127 0
-52 -29 -119 -61 -142 -37 -26 -93 -21 -130 12 -81 72 -25 266 79 271 7 1 28
-6 48 -14z"/>
</g>
</svg>
